<?xml version="1.0" standalone="no"?>
<!DOCTYPE svg PUBLIC "-//W3C//DTD SVG 20010904//EN"
 "http://www.w3.org/TR/2001/REC-SVG-20010904/DTD/svg10.dtd">
<svg version="1.0" xmlns="http://www.w3.org/2000/svg"
 width="512.000000pt" height="512.000000pt" viewBox="0 0 512.000000 512.000000"
 preserveAspectRatio="xMidYMid meet">

<g transform="translate(0.000000,512.000000) scale(0.100000,-0.100000)"
fill="#000000" stroke="none">
<path d="M2172 3940 c-33 -14 -1718 -1296 -1736 -1322 -20 -29 -20 -87 0 -116
26 -38 1713 -1313 1750 -1324 41 -11 86 11 103 49 7 16 11 140 11 361 0 378 2
391 70 424 33 17 108 18 1148 18 l1114 0 29 29 29 29 0 467 0 467 -34 34 -34
34 -1108 0 c-1036 0 -1111 1 -1144 18 -68 34 -70 45 -70 430 0 227 -4 350 -11
364 -6 11 -26 26 -44 34 -39 16 -42 16 -73 4z"/>
</g>
</svg>
