<?xml version="1.0" standalone="no"?>
<!DOCTYPE svg PUBLIC "-//W3C//DTD SVG 20010904//EN"
 "http://www.w3.org/TR/2001/REC-SVG-20010904/DTD/svg10.dtd">
<svg version="1.0" xmlns="http://www.w3.org/2000/svg"
 width="512.000000pt" height="512.000000pt" viewBox="0 0 512.000000 512.000000"
 preserveAspectRatio="xMidYMid meet">

<g transform="translate(0.000000,512.000000) scale(0.100000,-0.100000)"
fill="#000000" stroke="none">
<path d="M2868 3933 c-14 -9 -31 -27 -37 -40 -7 -16 -11 -142 -11 -361 0 -378
-2 -391 -70 -424 -33 -17 -108 -18 -1148 -18 l-1114 0 -29 -29 -29 -29 0 -467
0 -467 34 -34 34 -34 1108 0 c1036 0 1111 -1 1144 -18 68 -34 70 -45 70 -432
0 -382 -1 -378 64 -400 23 -7 41 -7 60 0 35 13 1720 1294 1740 1322 20 29 20
87 0 116 -24 35 -1712 1313 -1747 1323 -40 11 -37 12 -69 -8z"/>
</g>
</svg>
